<?xml version="1.0" encoding="utf-8"?>
<!-- Generator: Adobe Illustrator 25.0.0, SVG Export Plug-In . SVG Version: 6.00 Build 0)  -->
<svg version="1.1" id="Layer_1" xmlns="http://www.w3.org/2000/svg" xmlns:xlink="http://www.w3.org/1999/xlink" x="0px" y="0px"
	 viewBox="0 0 168 36" style="enable-background:new 0 0 168 36;" xml:space="preserve">
<style type="text/css">
	.st0{fill:#19324C;}
	.st1{fill:url(#SVGID_1_);}
	.st2{fill:url(#SVGID_2_);}
	.st3{fill:#39B1A5;}
</style>
<g>
	<g>
		<path class="st0" d="M90.6,27.3V35c0,0.2-0.2,0.4-0.4,0.4c-0.1,0-0.3-0.1-0.3-0.2l-4.4-6.6V35c0,0.2-0.2,0.4-0.4,0.4
			c-0.2,0-0.4-0.2-0.4-0.4v-7.8c0-0.2,0.2-0.4,0.4-0.4c0.1,0,0.3,0.1,0.3,0.2l4.4,6.6v-6.4c0-0.2,0.2-0.4,0.4-0.4
			C90.4,26.9,90.6,27,90.6,27.3"/>
		<path class="st0" d="M95.9,35.3c-0.2,0-0.4-0.2-0.4-0.4v-7.5c0-0.2,0.2-0.4,0.4-0.4h4c0.2,0,0.4,0.2,0.4,0.4
			c0,0.2-0.2,0.4-0.4,0.4h-3.6v3h2.7c0.2,0,0.4,0.2,0.4,0.4c0,0.2-0.2,0.4-0.4,0.4h-2.7v3.1h3.7c0.2,0,0.4,0.2,0.4,0.4
			c0,0.2-0.2,0.4-0.4,0.4H95.9z"/>
		<path class="st0" d="M104.4,27.8c-0.2,0-0.4-0.2-0.4-0.4c0-0.2,0.2-0.4,0.4-0.4h5.3c0.2,0,0.4,0.2,0.4,0.4c0,0.2-0.2,0.4-0.4,0.4
			h-2.2V35c0,0.2-0.2,0.4-0.4,0.4c-0.2,0-0.4-0.2-0.4-0.4v-7.3H104.4z"/>
		<path class="st0" d="M118.2,28.8l-1.8,6.3c0,0.2-0.2,0.3-0.4,0.3c-0.2,0-0.4-0.1-0.4-0.3l-2.2-7.7l0-0.2c0-0.2,0.2-0.4,0.4-0.4
			c0.2,0,0.4,0.2,0.4,0.3l1.8,6.4l1.8-6.4c0-0.2,0.2-0.3,0.4-0.3c0.2,0,0.4,0.1,0.4,0.3l1.8,6.4l1.8-6.4c0-0.1,0.2-0.3,0.4-0.3
			c0.2,0,0.4,0.2,0.4,0.4l0,0.2l-2.2,7.7c0,0.2-0.2,0.3-0.4,0.3c-0.2,0-0.4-0.1-0.4-0.3L118.2,28.8z"/>
		<path class="st0" d="M127,31.2c0,2.4,1.1,3.6,3,3.6c1.9,0,3-1.2,3-3.6c0-2.4-1.1-3.6-3-3.6C128.1,27.6,127,28.7,127,31.2
			 M126.1,31.2c0-3,1.5-4.4,3.9-4.4c2.4,0,3.9,1.4,3.9,4.4c0,2.9-1.5,4.4-3.9,4.4C127.6,35.5,126.1,34.1,126.1,31.2"/>
		<path class="st0" d="M138.7,30.9h2.1c0.9,0,1.5-0.7,1.5-1.6c0-0.9-0.6-1.6-1.5-1.6h-2V30.9z M138.7,35c0,0.2-0.2,0.4-0.4,0.4
			c-0.2,0-0.4-0.2-0.4-0.4v-7.6c0-0.2,0.2-0.4,0.4-0.4h2.5c1.4,0,2.4,1,2.4,2.4c0,1.3-0.9,2.3-2.2,2.4l2.3,3l0.1,0.3
			c0,0.2-0.2,0.4-0.4,0.4c-0.1,0-0.3-0.1-0.4-0.2l-2.5-3.5h-1.3V35z"/>
		<path class="st0" d="M152.2,27c0.1-0.1,0.2-0.2,0.3-0.2c0.2,0,0.4,0.2,0.4,0.4c0,0.1,0,0.2-0.1,0.3l-2.6,2.9l3,4.2l0.1,0.3
			c0,0.2-0.2,0.4-0.4,0.4c-0.2,0-0.3-0.1-0.4-0.2l-2.9-4.1l-1.1,1.2V35c0,0.2-0.2,0.4-0.4,0.4c-0.2,0-0.4-0.2-0.4-0.4v-7.7
			c0-0.2,0.2-0.4,0.4-0.4c0.2,0,0.4,0.2,0.4,0.4v3.9L152.2,27z"/>
		<path class="st0" d="M159.3,27.6c-1.3,0-1.8,0.6-1.8,1.4c0,2.1,4.7,1.2,4.7,4.2c0,1.6-1.1,2.4-3,2.4c-1.4,0-2.5-0.7-2.9-1.5
			l-0.1-0.2c0-0.2,0.2-0.4,0.4-0.4c0.1,0,0.3,0.1,0.3,0.2c0.4,0.6,1.1,1.2,2.2,1.2c1.4,0,2.1-0.5,2.1-1.6c0-2.3-4.7-1.2-4.7-4.2
			c0-1.1,0.8-2.1,2.7-2.1c1.2,0,2.1,0.5,2.7,1.3l0.1,0.2c0,0.2-0.2,0.4-0.4,0.4c-0.1,0-0.2,0-0.3-0.2
			C161,28.1,160.4,27.6,159.3,27.6"/>
		<path class="st0" d="M136,17.9c-3.8,0-6-2.3-6-7.5c0-5.2,2.2-7.5,6-7.5c3.8,0,6,2.3,6,7.5C142,15.6,139.8,17.9,136,17.9 M136,0.5
			c-5.3,0-8.6,3.1-8.6,9.9c0,6.7,3.3,9.9,8.6,9.9c5.3,0,8.6-3.2,8.6-9.9C144.6,3.6,141.3,0.5,136,0.5 M151.7,5.5
			c0-1.9,1.8-2.5,3.7-2.5c2.1,0,3.4,0.7,4.5,1.7c0.3,0.3,0.7,0.4,0.9,0.4c0.7,0,1.2-0.5,1.2-1.2c0-0.4-0.2-0.6-0.3-0.8
			c-1.3-1.7-3.5-2.6-6.3-2.6c-3.5,0-6.3,1.6-6.3,5c0,6.7,10.8,5.1,10.8,9.3c0,2.1-2,2.9-4.4,2.9c-2.3,0-3.9-0.7-5.2-2
			c-0.3-0.3-0.7-0.4-0.9-0.4c-0.7,0-1.2,0.5-1.2,1.2c0,0.3,0.1,0.5,0.3,0.8c1.1,1.4,3.7,3,7,3c3.9,0,7-1.7,7-5.4
			C162.6,8.2,151.7,9.8,151.7,5.5 M100.6,1c-0.5,0-1.4,0.2-1.4,1.5v13l-12-13.9c-1-1-2.6-0.3-2.6,0.9v16.4c0,1.3,0.8,1.5,1.3,1.5
			c0.5,0,1.4-0.2,1.4-1.5v-13l12,13.9c0.5,0.7,1,0.7,1.4,0.6c0.5-0.1,1.2-0.4,1.2-1.5V2.5C101.9,1.2,101.1,1.1,100.6,1 M109.2,8.8
			c0.2-3.7,2.2-6,5.8-6c4.2,0,5.3,3,5.3,6H109.2z M115,0.5c-5.3,0-8.5,3.5-8.5,9.9c0,6.9,3.4,9.9,8.9,9.9c3.7,0,5.8-1.7,6.4-2.3
			c0.2-0.2,0.5-0.5,0.5-0.9c0-0.7-0.5-1.2-1.2-1.2c-0.3,0-0.5,0.1-0.7,0.2c-1.2,0.9-2.6,1.8-4.9,1.8c-3.9,0-6.2-2.6-6.2-6.7h12
			c1.6,0,1.6-1.4,1.6-2.6C122.9,5.7,121.6,0.5,115,0.5 M165.4,18h-1.3l-0.1,0.1l0.1,0.1h0.6V20l0.1,0.1l0.1-0.1v-1.8h0.6V18
			L165.4,18z M167.7,18L167.7,18l-0.8,1.5l-0.8-1.4L166,18l-0.1,0.1V20l0.1,0.1l0.1-0.1v-1.5l0.6,1.2l0.1,0.1l0.1-0.1l0.7-1.2V20
			l0.1,0.1l0.1-0.1v-1.9L167.7,18z"/>
		<linearGradient id="SVGID_1_" gradientUnits="userSpaceOnUse" x1="13.0223" y1="2.8352" x2="13.0223" y2="35.0968">
			<stop  offset="0" style="stop-color:#19324C;stop-opacity:0.2"/>
			<stop  offset="0.5" style="stop-color:#19324C;stop-opacity:0.8"/>
			<stop  offset="0.7" style="stop-color:#19324C"/>
		</linearGradient>
		<path class="st1" d="M18.2,1.8c-0.8-0.3-1.8-0.3-2.6,0.1c-2.3,1.3-3.7,3.8-5.2,8.1L4.1,27.7c-1,2.5-2.2,4.8-3.9,6.1
			C1.6,34.5,2,34.6,3.5,35c1.3,0.4,3.4,0.4,4.7,0.3c3.6-0.4,6.7-2.1,8.9-4.6c1.2-1.4,2.2-3,2.9-4.7c0.1-0.1,0.1-0.3,0.2-0.4
			l5.5-15.3c0-0.1,0.1-0.2,0.1-0.4c0.1-0.2,0.1-0.5,0-0.7C24.7,6.8,23.1,3.7,18.2,1.8z"/>
		<linearGradient id="SVGID_2_" gradientUnits="userSpaceOnUse" x1="60.6598" y1="30.9648" x2="61.3848" y2="-0.2093">
			<stop  offset="0" style="stop-color:#19324C;stop-opacity:0.2"/>
			<stop  offset="0.5" style="stop-color:#19324C;stop-opacity:0.8"/>
			<stop  offset="0.7" style="stop-color:#19324C"/>
		</linearGradient>
		<path class="st2" d="M73.9,1C71.2,1,62.6,1,62,1c-6.6,0.1-8.4,2.2-10.8,9.1l-2.7,7.6c-0.1,0.2-0.1,0.4,0,0.6l3.6,9.5
			c0.5,1.4,1.4,2.8,2.3,4c0.6,0.7,1.6,0.8,2.3,0.2c0.4-0.4,0.8-0.8,1.2-1.2c1.2-1.4,2.2-3,2.9-4.7c0.1-0.1,0.1-0.3,0.2-0.4l5.5-15.3
			c0.6-1.5,2.9-7.8,7.5-9.2L73.9,1z"/>
		<path class="st3" d="M50,27.7l-6.4-17.6C41.2,3.2,39.3,0.8,32.8,1c-0.7,0-3.3,0-4,0h-8.3c-0.1,0-0.2,0.2,0,0.2
			c4.5,1.5,6.2,5.2,8,9.1l5.5,15.3c0.1,0.1,0.1,0.3,0.2,0.4c0.8,1.7,1.7,3.3,2.9,4.7c2.2,2.5,5.3,4.2,8.9,4.6
			c1.3,0.1,3.4,0.1,4.7-0.3c1.3-0.3,1.8-0.5,2.8-1c0.2-0.1,0.3-0.4,0.1-0.6C52,32.1,50.9,30,50,27.7z"/>
	</g>
</g>
</svg>
